<svg id="Capa_1" enable-background="new 0 0 512 512" height="512" viewBox="0 0 512 512" width="512" xmlns="http://www.w3.org/2000/svg" xmlns:xlink="http://www.w3.org/1999/xlink"><linearGradient id="SVGID_1_" gradientUnits="userSpaceOnUse" x1="256" x2="256" y1="512" y2="0"><stop offset="0" stop-color="#ffe59a"/><stop offset="1" stop-color="#ffffd5"/></linearGradient><linearGradient id="SVGID_2_" gradientUnits="userSpaceOnUse" x1="256" x2="256" y1="371.5" y2="140.5"><stop offset="0" stop-color="#ffde00"/><stop offset="1" stop-color="#fd5900"/></linearGradient><g><g><circle cx="256" cy="256" fill="url(#SVGID_1_)" r="256"/></g><g><g><path d="m109.91 159.206c-3.001 1.51-4.91 4.582-4.91 7.948v195.461c0 3.08 1.596 5.935 4.216 7.549 2.602 1.605 5.881 1.77 8.64.399.33-.165 34.159-16.832 67.086-16.832 25.715 0 51.748 10.078 62.177 14.61v-214.682c-14.087-5.526-37.858-13.159-62.177-13.159-37.196 0-73.506 17.943-75.032 18.706zm119.165 130.597c-1.24 4.776-6.1 7.604-10.825 6.395-23.975-6.178-42.642-6.178-66.618 0-4.788 1.232-9.594-1.648-10.825-6.395-1.214-4.746 1.631-9.596 6.384-10.819 26.89-6.924 48.61-6.924 75.5 0 4.754 1.223 7.599 6.073 6.384 10.819zm0-35.538c-1.24 4.776-6.1 7.604-10.825 6.395-23.975-6.178-42.642-6.178-66.618 0-4.788 1.241-9.594-1.648-10.825-6.395-1.214-4.746 1.631-9.596 6.384-10.819 26.89-6.924 48.61-6.924 75.5 0 4.754 1.222 7.599 6.073 6.384 10.819zm0-35.539c-1.24 4.776-6.1 7.604-10.825 6.395-23.975-6.177-42.642-6.177-66.618 0-4.788 1.25-9.594-1.648-10.825-6.395-1.214-4.746 1.631-9.596 6.384-10.819 26.89-6.924 48.61-6.924 75.5 0 4.754 1.223 7.599 6.073 6.384 10.819zm173.015-59.52c-1.527-.763-37.837-18.706-75.032-18.706-24.318 0-48.09 7.633-62.177 13.159v214.682c10.429-4.532 36.462-14.61 62.177-14.61 32.927 0 66.756 16.667 67.086 16.832 2.695 1.348 5.965 1.265 8.64-.399 2.62-1.614 4.216-4.469 4.216-7.549v-195.461c0-3.366-1.908-6.438-4.91-7.948zm-30.897 130.597c-1.24 4.776-6.1 7.604-10.825 6.395-23.975-6.178-42.642-6.178-66.618 0-4.771 1.232-9.594-1.648-10.825-6.395-1.214-4.746 1.631-9.596 6.384-10.819 26.89-6.924 48.61-6.924 75.5 0 4.753 1.223 7.598 6.073 6.384 10.819zm0-35.538c-1.24 4.776-6.1 7.604-10.825 6.395-23.975-6.178-42.642-6.178-66.618 0-4.771 1.241-9.594-1.648-10.825-6.395-1.214-4.746 1.631-9.596 6.384-10.819 26.89-6.924 48.61-6.924 75.5 0 4.753 1.222 7.598 6.073 6.384 10.819zm0-35.539c-1.24 4.776-6.1 7.604-10.825 6.395-23.975-6.177-42.642-6.177-66.618 0-4.771 1.25-9.594-1.648-10.825-6.395-1.214-4.746 1.631-9.596 6.384-10.819 26.89-6.924 48.61-6.924 75.5 0 4.753 1.223 7.598 6.073 6.384 10.819z" fill="url(#SVGID_2_)"/></g></g></g></svg>