<svg id="Layer_1" enable-background="new 0 0 512 512" height="512" viewBox="0 0 512 512" width="512" xmlns="http://www.w3.org/2000/svg"><g><g><g><g><g><g><g><g><g><circle cx="256" cy="256" fill="#a3d4ff" r="256"/></g></g></g></g></g></g></g></g><path d="m512 256c0-7.299-.306-14.527-.905-21.671l-147.742-147.743-199.916 82.226 70.93 70.93-99.398 28.959 43.424 43.423-61.095 74.498 125.017 125.018c4.532.239 9.094.36 13.685.36 141.385 0 256-114.615 256-256z" fill="#65b1fc"/><g><g><path d="m363.353 182.009h-166.994c-26.35 0-47.712-21.361-47.712-47.712 0-26.35 21.361-47.712 47.712-47.712h166.994v28.082l-5.176 19.162 5.176 20.097z" fill="#ffce00"/></g><g><path d="m363.353 86.586h-107.509v95.424h107.509v-28.083l-5.177-20.097 5.177-19.162z" fill="#fdba12"/></g><g><path d="m363.353 153.927h-168.18c-10.754 0-19.473-8.718-19.473-19.473v-.314c0-10.754 8.718-19.473 19.473-19.473h168.179v39.26z" fill="#fff"/></g><g><path d="m255.844 114.668h107.508v39.259h-107.508z" fill="#e9edf5"/></g></g><g><g><path d="m397.886 276.978h-236.061c-26.35 0-47.712-21.361-47.712-47.712 0-26.35 21.361-47.712 47.712-47.712h236.061v28.082l-5.176 19.162 5.176 20.097z" fill="#7584f2"/></g><g><path d="m397.886 181.554h-142.042v95.424h142.042v-28.082l-5.176-20.098 5.176-19.162z" fill="#606aea"/></g><g><path d="m397.886 248.896h-237.246c-10.754 0-19.473-8.718-19.473-19.473v-.314c0-10.754 8.718-19.473 19.473-19.473h237.247v39.26z" fill="#fff"/></g><g><path d="m255.844 209.636h142.042v39.259h-142.042z" fill="#e9edf5"/></g></g><g><g><path d="m413.524 405.502h-250.69c-35.544 0-64.359-28.814-64.359-64.359 0-35.544 28.814-64.359 64.359-64.359h250.69v37.88l-6.982 25.848 6.982 27.109z" fill="#fe6a16"/></g><g><path d="m413.524 276.785h-157.68v128.717h157.68v-37.88l-6.982-27.11 6.982-25.847z" fill="#f24500"/></g><g><path d="m413.524 367.622h-252.289c-14.507 0-26.267-11.76-26.267-26.267v-.424c0-14.507 11.76-26.267 26.267-26.267h252.289z" fill="#fff"/></g><g><path d="m255.844 314.665h157.68v52.957h-157.68z" fill="#e9edf5"/></g></g></g></svg>