<?xml version="1.0" encoding="iso-8859-1"?>
<!-- Generator: Adobe Illustrator 19.0.0, SVG Export Plug-In . SVG Version: 6.00 Build 0)  -->
<svg version="1.1" id="Capa_1" xmlns="http://www.w3.org/2000/svg" xmlns:xlink="http://www.w3.org/1999/xlink" x="0px" y="0px"
	 viewBox="0 0 512 512" style="enable-background:new 0 0 512 512;" xml:space="preserve">
<g>
	<g>
		<path d="M486.4,51.2h-384c-4.71,0-8.533,3.823-8.533,8.533s3.823,8.533,8.533,8.533c18.825,0,34.133,15.309,34.133,34.133v383.974
			c0,14.131,11.494,25.626,25.626,25.626h324.216C500.506,512,512,500.506,512,486.374V76.8C512,62.686,500.514,51.2,486.4,51.2z
			 M494.933,486.374c0,4.719-3.84,8.559-8.559,8.559H162.159c-4.719,0-8.559-3.84-8.559-8.559V102.4
			c0-13.099-4.949-25.071-13.065-34.133H486.4c4.71,0,8.533,3.831,8.533,8.533V486.374z"/>
	</g>
</g>
<g>
	<g>
		<path d="M401.067,0H25.6C11.486,0,0,11.486,0,25.6v375.467C0,419.891,15.309,435.2,34.133,435.2
			c18.825,0,34.133-15.309,34.133-34.133V102.4c0-18.825,15.309-34.133,34.133-34.133h315.733c4.71,0,8.533-3.823,8.533-8.533V25.6
			C426.667,11.486,415.181,0,401.067,0z M409.6,51.2H102.4c-28.228,0-51.2,22.963-51.2,51.2v298.667
			c0,9.412-7.654,17.067-17.067,17.067c-9.412,0-17.067-7.654-17.067-17.067V25.6c0-4.702,3.823-8.533,8.533-8.533h375.467
			c4.71,0,8.533,3.831,8.533,8.533V51.2z"/>
	</g>
</g>
<g>
	<g>
		<path d="M102.4,93.867c-4.71,0-8.533,3.823-8.533,8.533v375.467c0,4.71,3.823,8.533,8.533,8.533c4.71,0,8.533-3.823,8.533-8.533
			V102.4C110.933,97.69,107.11,93.867,102.4,93.867z"/>
	</g>
</g>
<g>
	<g>
		<path d="M247.467,247.467H179.2c-4.71,0-8.533,3.823-8.533,8.533v51.2c0,4.71,3.823,8.533,8.533,8.533h68.267
			c4.71,0,8.533-3.823,8.533-8.533V256C256,251.29,252.177,247.467,247.467,247.467z M238.933,298.667h-51.2v-34.133h51.2V298.667z"
			/>
	</g>
</g>
<g>
	<g>
		<path d="M469.333,247.467h-68.267c-4.71,0-8.533,3.823-8.533,8.533v51.2c0,4.71,3.823,8.533,8.533,8.533h68.267
			c4.71,0,8.533-3.823,8.533-8.533V256C477.867,251.29,474.044,247.467,469.333,247.467z M460.8,298.667h-51.2v-34.133h51.2V298.667
			z"/>
	</g>
</g>
<g>
	<g>
		<path d="M358.4,247.467h-68.267c-4.71,0-8.533,3.823-8.533,8.533v51.2c0,4.71,3.823,8.533,8.533,8.533H358.4
			c4.71,0,8.533-3.823,8.533-8.533V256C366.933,251.29,363.11,247.467,358.4,247.467z M349.867,298.667h-51.2v-34.133h51.2V298.667z
			"/>
	</g>
</g>
<g>
	<g>
		<path d="M418.133,401.067h-68.267c-4.71,0-8.533,3.823-8.533,8.533v51.2c0,4.71,3.823,8.533,8.533,8.533h68.267
			c4.71,0,8.533-3.823,8.533-8.533v-51.2C426.667,404.89,422.844,401.067,418.133,401.067z M409.6,452.267h-51.2v-34.133h51.2
			V452.267z"/>
	</g>
</g>
<g>
	<g>
		<path d="M298.667,401.067H230.4c-4.71,0-8.533,3.823-8.533,8.533v51.2c0,4.71,3.823,8.533,8.533,8.533h68.267
			c4.71,0,8.533-3.823,8.533-8.533v-51.2C307.2,404.89,303.377,401.067,298.667,401.067z M290.133,452.267h-51.2v-34.133h51.2
			V452.267z"/>
	</g>
</g>
<g>
	<g>
		<path d="M324.267,196.267c-4.71,0-8.533,3.823-8.533,8.533V256c0,4.71,3.823,8.533,8.533,8.533S332.8,260.71,332.8,256v-51.2
			C332.8,200.09,328.977,196.267,324.267,196.267z"/>
	</g>
</g>
<g>
	<g>
		<path d="M358.4,93.867h-68.267c-4.71,0-8.533,3.823-8.533,8.533v51.2c0,4.71,3.823,8.533,8.533,8.533H358.4
			c4.71,0,8.533-3.823,8.533-8.533v-51.2C366.933,97.69,363.11,93.867,358.4,93.867z M349.867,145.067h-51.2v-34.133h51.2V145.067z"
			/>
	</g>
</g>
<g>
	<g>
		<path d="M324.267,145.067c-4.71,0-8.533,3.823-8.533,8.533v51.2c0,4.71,3.823,8.533,8.533,8.533s8.533-3.823,8.533-8.533v-51.2
			C332.8,148.89,328.977,145.067,324.267,145.067z"/>
	</g>
</g>
<g>
	<g>
		<path d="M264.533,349.867c-4.71,0-8.533,3.823-8.533,8.533v51.2c0,4.71,3.823,8.533,8.533,8.533c4.71,0,8.533-3.823,8.533-8.533
			v-51.2C273.067,353.69,269.244,349.867,264.533,349.867z"/>
	</g>
</g>
<g>
	<g>
		<path d="M384,349.867c-4.71,0-8.533,3.823-8.533,8.533v51.2c0,4.71,3.823,8.533,8.533,8.533s8.533-3.823,8.533-8.533v-51.2
			C392.533,353.69,388.71,349.867,384,349.867z"/>
	</g>
</g>
<g>
	<g>
		<path d="M324.267,196.267H213.333c-4.71,0-8.533,3.823-8.533,8.533V256c0,4.71,3.823,8.533,8.533,8.533
			c4.71,0,8.533-3.823,8.533-8.533v-42.667h102.4c4.71,0,8.533-3.823,8.533-8.533C332.8,200.09,328.977,196.267,324.267,196.267z"/>
	</g>
</g>
<g>
	<g>
		<path d="M435.2,196.267H324.267c-4.71,0-8.533,3.823-8.533,8.533c0,4.71,3.823,8.533,8.533,8.533h102.4V256
			c0,4.71,3.823,8.533,8.533,8.533s8.533-3.823,8.533-8.533v-51.2C443.733,200.09,439.91,196.267,435.2,196.267z"/>
	</g>
</g>
<g>
	<g>
		<path d="M435.2,298.667c-4.71,0-8.533,3.823-8.533,8.533v42.667h-102.4c-4.71,0-8.533,3.823-8.533,8.533s3.823,8.533,8.533,8.533
			H435.2c4.71,0,8.533-3.823,8.533-8.533v-51.2C443.733,302.49,439.91,298.667,435.2,298.667z"/>
	</g>
</g>
<g>
	<g>
		<path d="M324.267,349.867h-102.4V307.2c0-4.71-3.823-8.533-8.533-8.533c-4.71,0-8.533,3.823-8.533,8.533v51.2
			c0,4.71,3.823,8.533,8.533,8.533h110.933c4.71,0,8.533-3.823,8.533-8.533S328.977,349.867,324.267,349.867z"/>
	</g>
</g>
<g>
	<g>
		<path d="M247.467,119.467h-59.733c-4.71,0-8.533,3.823-8.533,8.533s3.823,8.533,8.533,8.533h59.733
			c4.71,0,8.533-3.823,8.533-8.533S252.177,119.467,247.467,119.467z"/>
	</g>
</g>
<g>
	<g>
		<path d="M460.8,119.467h-59.733c-4.71,0-8.533,3.823-8.533,8.533s3.823,8.533,8.533,8.533H460.8c4.71,0,8.533-3.823,8.533-8.533
			S465.51,119.467,460.8,119.467z"/>
	</g>
</g>
<g>
</g>
<g>
</g>
<g>
</g>
<g>
</g>
<g>
</g>
<g>
</g>
<g>
</g>
<g>
</g>
<g>
</g>
<g>
</g>
<g>
</g>
<g>
</g>
<g>
</g>
<g>
</g>
<g>
</g>
</svg>
